<svg id="icon__note" viewBox="0 0 47.12683 48">
    <title>note</title>
    <path
            d="M45.47837,3.73306l-2.083-2.08364a5.641,5.641,0,0,0-7.97123-.00076L15.86953,21.22393l-4.525,14.55926,14.57845-4.494,8.11355-8.121V43.63506H4.36056V6.98246H24.95336L28.508,3.14618l0.53237-.52791H0V48H38.4V18.80038l7.07834-7.08793A5.65227,5.65227,0,0,0,45.47837,3.73306ZM23.61811,27.46027l-4.28393,1.31691-0.97179-.96892,1.33013-4.27351L32.96446,10.2474l3.92476,3.92846ZM42.41252,8.64592l-2.439,2.44129-3.927-3.92627,2.4428-2.44424a1.34446,1.34446,0,0,1,1.83961,0L42.41252,6.804A1.32124,1.32124,0,0,1,42.41252,8.64592Z"/>
</svg>